# xmcd CD database file
#
# Track frame offsets:
#	150
#	21380
#	40968
#	73430
#
# Disc length: 4440 seconds
#
# Revision: 0
# Processed by: cddbd v1.5.1PL0 Copyright (c) Steve Scherf et al.
# Submitted via: CDex 1.51
#
DISCID=39115604
DTITLE=諫山実生 - 月のワルツ
DYEAR=2004
DGENRE=JPop
TTITLE0=月のワルツ
TTITLE1=坂道
TTITLE2=月のワルツ(オリジナル・カラオケ)
TTITLE3=data
EXTD=YEAR: 2004.12.01
EXTT0=
EXTT1=
EXTT2=
EXTT3=
PLAYORDER=
